name Walk5.mot
datacolumns 19
datarows 25
range 1.22500000 1.34500000
endheader

                time	   L_ground_force_vx	   L_ground_force_vy	   L_ground_force_vz	   L_ground_force_px	   L_ground_force_py	   L_ground_force_pz	   R_ground_force_vx	   R_ground_force_vy	   R_ground_force_vz	   R_ground_force_px	   R_ground_force_py	   R_ground_force_pz	   L_ground_torque_x	   L_ground_torque_y	   L_ground_torque_z	   R_ground_torque_x	   R_ground_torque_y	   R_ground_torque_z	
          1.22500000	         -4.06799877	         89.24345591	         -5.95006624	         -0.07096724	          0.00000000	         -0.00754053	         -0.00000000	          0.00000000	         -0.00000000	          0.00000000	          0.00000000	          0.00000000	          0.00000000	          0.11293381	          0.00000000	          0.00000000	          0.00000000	          0.00000000	
          1.23000000	         -7.67476850	        122.21798736	         -7.17752193	         -0.15637762	          0.00000000	         -0.01911411	         -0.00000000	          0.00000000	         -0.00000000	         -0.00000000	          0.00000000	         -0.00000000	          0.00000000	          0.15905679	          0.00000000	          0.00000000	          0.00000000	          0.00000000	
          1.23500000	        -12.34057207	        157.23867267	         -8.18632394	         -0.23205738	          0.00000000	         -0.02954158	         -0.00000000	         -0.00000000	         -0.00000000	         -0.00000000	          0.00000000	         -0.00000000	          0.00000000	          0.21635592	          0.00000000	          0.00000000	          0.00000000	          0.00000000	
          1.24000000	        -18.08334654	        192.44930503	         -8.76345376	         -0.29525036	          0.00000000	         -0.03850941	         -0.00000000	         -0.00000000	         -0.00000000	         -0.00000000	          0.00000000	         -0.00000000	          0.00000000	          0.28355827	          0.00000000	          0.00000000	          0.00000000	          0.00000000	
          1.24500000	        -24.78502707	        226.73646103	         -8.71421246	         -0.34516587	          0.00000000	         -0.04593990	         -0.00000000	         -0.00000001	         -0.00000000	         -0.00000000	          0.00000000	         -0.00000000	          0.00000000	          0.35906248	          0.00000000	          0.00000000	          0.00000000	          0.00000000	
          1.25000000	        -32.17785659	        259.77366839	         -7.92583173	         -0.38234788	          0.00000000	         -0.05190573	         -0.00000000	         -0.00000001	         -0.00000000	         -0.00000000	          0.00000000	         -0.00000000	          0.00000000	          0.44062472	          0.00000000	          0.00000000	          0.00000000	          0.00000000	
          1.25500000	        -39.89428653	        291.44121313	         -6.38212628	         -0.40816302	          0.00000000	         -0.05656096	         -0.00000000	         -0.00000002	         -0.00000000	         -0.00000000	          0.00000000	         -0.00000000	          0.00000000	          0.52520084	          0.00000000	          0.00000000	          0.00000000	          0.00000000	
          1.26000000	        -47.53113971	        321.58664177	         -4.15513409	         -0.42440809	          0.00000000	         -0.06009183	         -0.00000000	         -0.00000003	         -0.00000000	         -0.00000000	          0.00000000	         -0.00000000	          0.00000000	          0.60953201	          0.00000000	          0.00000000	         -0.00000000	          0.00000000	
          1.26500000	        -54.73690833	        350.05743133	         -1.39545566	         -0.43302055	          0.00000000	         -0.06268756	          0.00000000	         -0.00000003	         -0.00000000	         -0.00000000	          0.00000000	         -0.00000000	          0.00000000	          0.69179301	          0.00000000	          0.00000000	         -0.00000000	          0.00000000	
          1.27000000	        -61.29959640	        376.78310039	          1.69206241	         -0.43587044	          0.00000000	         -0.06452524	          0.00000000	         -0.00000004	         -0.00000000	         -0.00000000	          0.00000000	         -0.00000000	          0.00000000	          0.77312972	          0.00000000	          0.00000000	         -0.00000000	          0.00000000	
          1.27500000	        -67.16921169	        401.82581846	          4.90155631	         -0.43462674	          0.00000000	         -0.06576730	          0.00000000	         -0.00000005	         -0.00000000	         -0.00000000	          0.00000000	         -0.00000000	          0.00000000	          0.85645968	          0.00000000	          0.00000000	         -0.00000000	          0.00000000	
          1.28000000	        -72.40413045	        425.40173981	          8.07070429	         -0.43069001	          0.00000000	         -0.06655715	          0.00000000	         -0.00000006	         -0.00000000	         -0.00000000	          0.00000000	         -0.00000000	          0.00000000	          0.94489926	          0.00000000	          0.00000000	         -0.00000000	          0.00000000	
          1.28500000	        -77.09654313	        447.85855128	         11.08667720	         -0.42517990	          0.00000000	         -0.06701537	          0.00000001	         -0.00000006	         -0.00000000	         -0.00000000	          0.00000000	         -0.00000000	          0.00000000	          1.04053560	          0.00000000	          0.00000000	         -0.00000000	          0.00000000	
          1.29000000	        -81.31935707	        469.57874249	         13.86953065	         -0.41895376	          0.00000000	         -0.06723893	          0.00000001	         -0.00000006	          0.00000000	         -0.00000000	          0.00000000	         -0.00000000	          0.00000000	          1.14412994	          0.00000000	          0.00000000	         -0.00000000	          0.00000000	
          1.29500000	        -85.10089081	        490.86232323	         16.35821148	         -0.41263666	          0.00000000	         -0.06730087	          0.00000001	         -0.00000005	          0.00000000	         -0.00000000	          0.00000000	         -0.00000000	          0.00000000	          1.25588374	          0.00000000	          0.00000000	         -0.00000000	          0.00000000	
          1.30000000	        -88.42373294	        511.85499522	         18.51148509	         -0.40665534	          0.00000000	         -0.06725489	          0.00000002	         -0.00000003	          0.00000001	          0.00000000	          0.00000000	          0.00000000	          0.00000000	          1.37556605	          0.00000000	          0.00000000	         -0.00000000	          0.00000000	
          1.30500000	        -91.24033159	        532.53920598	         20.31552304	         -0.40127609	          0.00000000	         -0.06714273	          0.00000002	          0.00000001	          0.00000001	          0.00000000	          0.00000000	          0.00000000	          0.00000000	          1.50163897	          0.00000000	          0.00000000	         -0.00000000	          0.00000000	
          1.31000000	        -93.49419516	        552.77169013	         21.78669141	         -0.39663882	          0.00000000	         -0.06699603	          0.00000002	          0.00000006	          0.00000001	          0.00000000	          0.00000000	          0.00000000	          0.00000000	          1.63138781	          0.00000000	          0.00000000	         -0.00000000	          0.00000000	
          1.31500000	        -95.14219844	        572.33771964	         22.96638393	         -0.39278782	          0.00000000	         -0.06683752	          0.00000002	          0.00000015	          0.00000002	          0.00000000	          0.00000000	          0.00000000	          0.00000000	          1.76128745	          0.00000000	          0.00000000	         -0.00000000	          0.00000000	
          1.32000000	        -96.17098179	        590.99003907	         23.90778467	         -0.38970048	          0.00000000	         -0.06668370	          0.00000002	          0.00000025	          0.00000002	          0.00000000	          0.00000000	          0.00000000	          0.00000000	          1.88709556	          0.00000000	          0.00000000	         -0.00000000	          0.00000000	
          1.32500000	        -96.59630458	        608.47126737	         24.66113873	         -0.38730965	          0.00000000	         -0.06654370	          0.00000001	          0.00000039	          0.00000003	          0.00000000	          0.00000000	          0.00000000	          0.00000000	          2.00435750	          0.00000000	          0.00000000	         -0.00000000	          0.00000000	
          1.33000000	        -96.44842196	        624.53093768	         25.26750712	         -0.38552279	          0.00000000	         -0.06642124	          0.00000000	          0.00000056	          0.00000003	          0.00000000	          0.00000000	          0.00000000	          0.00000000	          2.10893549	          0.00000000	          0.00000000	         -0.00000000	          0.00000000	
          1.33500000	        -95.76138078	        638.94360793	         25.76139307	         -0.38423902	          0.00000000	         -0.06631715	         -0.00000001	          0.00000076	          0.00000004	          0.00000000	          0.00000000	          0.00000000	          0.00000000	          2.19723950	          0.00000000	          0.00000000	          0.00000000	          0.00000000	
          1.34000000	        -94.57318407	        651.52752573	         26.17614231	         -0.38335908	          0.00000000	         -0.06622947	         -0.00000004	          0.00000097	          0.00000004	          0.00000000	          0.00000000	          0.00000000	          0.00000000	          2.26636730	          0.00000000	          0.00000000	          0.00000000	          0.00000000	
          1.34500000	        -92.92900890	        662.15770630	         26.54640937	         -0.38278999	          0.00000000	         -0.06615584	         -0.00000007	          0.00000118	          0.00000004	          0.00000000	          0.00000000	          0.00000000	          0.00000000	          2.31395273	          0.00000000	          0.00000000	          0.00000000	          0.00000000	
